# xmcd CD database file
#
# Track frame offsets:
#	150
#	13172
#	26704
#	39467
#	54502
#	67309
#	79330
#	90090
#	104527
#	119871
#	134024
#	147262
#	161847
#	176272
#	190241
#	204406
#	219546
#	233968
#	248627
#	263045
#	276069
#	289260
#	304166
#
# Disc length: 4239 seconds
#
# Revision: 4
# Processed by: cddbd v1.4PL0 Copyright (c) Steve Scherf et al.
# Submitted via: CDex 1.50Beta7
#
DISCID=5e108d17
DTITLE=Sippie Wallace - Complete Recorded Works Vol. 2 (1925-1945)
DYEAR=1995
DGENRE=Blues
TTITLE0=Advice Blues (1925)
TTITLE1=Murder's Gonna be My Crime (1925)
TTITLE2=The Man I Love (1925)
TTITLE3=I Am Leaving You (1925)
TTITLE4=I'm Sorry For It Now (1925)
TTITLE5=Suitcase Blues (1925)
TTITLE6=I Must Have It (1925)
TTITLE7=A Jealous Woman Like Me (1926)
TTITLE8=Special Delivery Blues (1926)
TTITLE9=Jack Of Diamonds Blues (1926)
TTITLE10=The Mail Train Blues (1926)
TTITLE11=I Feel Good (1926)
TTITLE12=A Man for Every Day in the Week (1926)
TTITLE13=I'm A Mighty Tight Woman (9929) - 1926
TTITLE14=Bedroom Blues (9930) - 1926
TTITLE15=Dead Drunk Blues (1927)
TTITLE16=Have You Ever Been Down¿ (1927)
TTITLE17=Lazy Man Blues (1927)
TTITLE18=The Flood Blues (1927)
TTITLE19=You Gonna Need My Help (1929)
TTITLE20=I'm A Mighty Tight Woman (48870) - 1929
TTITLE21=Bedroom Blues (117) - 1945
TTITLE22=Buzz Me (1945)
EXTD=YEAR: 1995
EXTT0=
EXTT1=
EXTT2=
EXTT3=
EXTT4=
EXTT5=
EXTT6=
EXTT7=
EXTT8=
EXTT9=
EXTT10=
EXTT11=
EXTT12=
EXTT13=
EXTT14=
EXTT15=
EXTT16=
EXTT17=
EXTT18=
EXTT19=
EXTT20=
EXTT21=
EXTT22=
PLAYORDER=
